<svg width="100%" height="100%" viewBox="0 0 194 20" version="1.1" xmlns="http://www.w3.org/2000/svg" xmlns:xlink="http://www.w3.org/1999/xlink" xml:space="preserve" style="fill-rule:evenodd;clip-rule:evenodd;stroke-linejoin:round;stroke-miterlimit:1.41421;"><path d="M146,3c0,-1.656 -1.344,-3 -3,-3l-140,0c-1.656,0 -3,1.344 -3,3l0,14c0,1.656 1.344,3 3,3l140,0c1.656,0 3,-1.344 3,-3l0,-14Z" style="fill:#555;"/><path d="M193.333,3c0,-1.656 -1.344,-3 -3,-3l-99.333,0c-1.656,0 -3,1.344 -3,3l0,14c0,1.656 1.344,3 3,3l99.333,0c1.656,0 3,-1.344 3,-3l0,-14Z" style="fill:#e05d44;"/><path d="M88,0l35.973,0l0,20l-35.973,0l0,-20Z" style="fill:#a2e7b7;fill-rule:nonzero;"/><path d="M123.834,0l36.388,0l0,20l-36.388,0l0,-20Z" style="fill:#e7d2a2;fill-rule:nonzero;"/><path d="M193.333,3c0,-1.656 -1.344,-3 -3,-3l-187.333,0c-1.656,0 -3,1.344 -3,3l0,14c0,1.656 1.344,3 3,3l187.333,0c1.656,0 3,-1.344 3,-3l0,-14Z" style="fill:url(#_Linear1);"/><g><text x="7.413px" y="15px" style="font-family:'Verdana', sans-serif;font-size:11px;fill:#010101;fill-opacity:0.298039;">dependencies</text><text x="7.413px" y="14px" style="font-family:'Verdana', sans-serif;font-size:11px;fill:#fff;">dependencies</text><text x="96.06px" y="15px" style="font-family:'Verdana', sans-serif;font-size:11px;fill:#010101;fill-opacity:0.298039;">999</text><text x="131.598px" y="15px" style="font-family:'Verdana', sans-serif;font-size:11px;fill:#010101;fill-opacity:0.298039;">888</text><text x="167.205px" y="15px" style="font-family:'Verdana', sans-serif;font-size:11px;fill:#010101;fill-opacity:0.298039;">777</text><text x="96.06px" y="14px" style="font-family:'Verdana', sans-serif;font-size:11px;fill:#fff;">999</text><text x="131.598px" y="14px" style="font-family:'Verdana', sans-serif;font-size:11px;fill:#fff;">888</text><text x="167.205px" y="14px" style="font-family:'Verdana', sans-serif;font-size:11px;fill:#fff;">777</text></g><defs><linearGradient id="_Linear1" x1="0" y1="0" x2="1" y2="0" gradientUnits="userSpaceOnUse" gradientTransform="matrix(1.62168e-15,20,-26.484,1.22465e-15,0,0)"><stop offset="0%" style="stop-color:#bbb;stop-opacity:0.0980392"/><stop offset="100%" style="stop-color:#000;stop-opacity:0.0980392"/></linearGradient></defs></svg>